<svg id="Layer_1" data-name="Layer 1" xmlns="http://www.w3.org/2000/svg" viewBox="0 0 16 16">
  <defs>
    <style>.cls-1{fill:#414042;}.cls-2{fill:#fff;}</style>
  </defs>
  <rect class="cls-1" width="16" height="16" />
  <rect class="cls-2" x="3.53" y="11.48" width="2.72" height="2" />
  <path class="cls-2" d="M11.94,3.56a4.14,4.14,0,0,0-3-1H3.53v4H6.25V4.83H8.66a1.82,1.82,0,0,1,1.24.41,1.39,1.39,0,0,1,.46,1.09,1.45,1.45,0,0,1-.45,1.12,1.77,1.77,0,0,1-1.25.42H3.53v2.26H8.86a4.31,4.31,0,0,0,3.05-1.05A3.63,3.63,0,0,0,13,6.3,3.59,3.59,0,0,0,11.94,3.56Z" />
</svg>