<?xml version="1.0" encoding="utf-8"?>
<!-- Generator: Adobe Illustrator 25.4.1, SVG Export Plug-In . SVG Version: 6.00 Build 0)  -->
<svg version="1.1" id="Layer_1" xmlns="http://www.w3.org/2000/svg" xmlns:xlink="http://www.w3.org/1999/xlink" x="0px" y="0px"
	 viewBox="0 0 16 16" style="enable-background:new 0 0 16 16;" xml:space="preserve">
<style type="text/css">
	.st0{fill:none;}
	.st1{fill:#414042;}
</style>
<rect y="0" class="st0" width="16" height="16"/>
<rect x="3.5" y="11.5" class="st1" width="2.7" height="2"/>
<path class="st1" d="M11.9,3.6c-0.8-0.7-1.9-1.1-3-1H3.5v4h2.7V4.8h2.4c0.4,0,0.9,0.1,1.2,0.4c0.3,0.3,0.5,0.7,0.5,1.1
	c0,0.4-0.1,0.8-0.4,1.1C9.6,7.7,9.1,7.9,8.7,7.9H3.5v2.3h5.3c1.1,0.1,2.2-0.3,3.1-1.1c0.7-0.7,1.1-1.7,1.1-2.8
	C13.1,5.3,12.7,4.3,11.9,3.6z"/>
</svg>
